<mxfile host="app.diagrams.net" modified="2023-10-18T04:09:01.094Z" agent="Mozilla/5.0 (Windows NT 10.0; Win64; x64) AppleWebKit/537.36 (KHTML, like Gecko) Chrome/118.0.0.0 Safari/537.36" version="22.0.4" etag="Fn8X8tAtXU8382HRy7Xo" type="github">
  <diagram name="Trang-1" id="MA0zg3rQAhE-YQqJo0Ur">
    <mxGraphModel>
      <root>
        <mxCell id="0" />
        <mxCell id="1" parent="0" />
      </root>
    </mxGraphModel>
  </diagram>
</mxfile>
